%TF.GenerationSoftware,KiCad,Pcbnew,(6.0.9)*%
%TF.CreationDate,2022-12-25T13:15:50+01:00*%
%TF.ProjectId,votoco,766f746f-636f-42e6-9b69-6361645f7063,rev?*%
%TF.SameCoordinates,Original*%
%TF.FileFunction,Soldermask,Bot*%
%TF.FilePolarity,Negative*%
%FSLAX46Y46*%
G04 Gerber Fmt 4.6, Leading zero omitted, Abs format (unit mm)*
G04 Created by KiCad (PCBNEW (6.0.9)) date 2022-12-25 13:15:50*
%MOMM*%
%LPD*%
G01*
G04 APERTURE LIST*
G04 Aperture macros list*
%AMRoundRect*
0 Rectangle with rounded corners*
0 $1 Rounding radius*
0 $2 $3 $4 $5 $6 $7 $8 $9 X,Y pos of 4 corners*
0 Add a 4 corners polygon primitive as box body*
4,1,4,$2,$3,$4,$5,$6,$7,$8,$9,$2,$3,0*
0 Add four circle primitives for the rounded corners*
1,1,$1+$1,$2,$3*
1,1,$1+$1,$4,$5*
1,1,$1+$1,$6,$7*
1,1,$1+$1,$8,$9*
0 Add four rect primitives between the rounded corners*
20,1,$1+$1,$2,$3,$4,$5,0*
20,1,$1+$1,$4,$5,$6,$7,0*
20,1,$1+$1,$6,$7,$8,$9,0*
20,1,$1+$1,$8,$9,$2,$3,0*%
%AMFreePoly0*
4,1,14,0.364320,0.111820,0.377500,0.080000,0.377501,0.053640,0.364318,0.021819,0.230680,-0.111820,0.198860,-0.125000,-0.332500,-0.125000,-0.364320,-0.111820,-0.377500,-0.080000,-0.377500,0.080000,-0.364320,0.111820,-0.332500,0.125000,0.332500,0.125000,0.364320,0.111820,0.364320,0.111820,$1*%
%AMFreePoly1*
4,1,14,0.230680,0.111820,0.364320,-0.021821,0.377500,-0.053642,0.377500,-0.080000,0.364320,-0.111820,0.332500,-0.125000,-0.332500,-0.125000,-0.364320,-0.111820,-0.377500,-0.080000,-0.377500,0.080000,-0.364320,0.111820,-0.332500,0.125000,0.198860,0.125000,0.230680,0.111820,0.230680,0.111820,$1*%
%AMFreePoly2*
4,1,14,0.111820,0.364320,0.125000,0.332500,0.125000,-0.332500,0.111820,-0.364320,0.080000,-0.377500,0.053640,-0.377501,0.021819,-0.364318,-0.111820,-0.230680,-0.125000,-0.198860,-0.125000,0.332500,-0.111820,0.364320,-0.080000,0.377500,0.080000,0.377500,0.111820,0.364320,0.111820,0.364320,$1*%
%AMFreePoly3*
4,1,14,0.111820,0.364320,0.125000,0.332500,0.125001,-0.198860,0.111818,-0.230681,-0.021820,-0.364320,-0.053640,-0.377500,-0.080000,-0.377500,-0.111820,-0.364320,-0.125000,-0.332500,-0.125000,0.332500,-0.111820,0.364320,-0.080000,0.377500,0.080000,0.377500,0.111820,0.364320,0.111820,0.364320,$1*%
%AMFreePoly4*
4,1,15,-0.198858,0.125000,0.332500,0.125000,0.364320,0.111820,0.377500,0.080000,0.377500,-0.080000,0.364320,-0.111820,0.332500,-0.125000,-0.332500,-0.125000,-0.364320,-0.111820,-0.377500,-0.080000,-0.377500,-0.053640,-0.364320,-0.021820,-0.230680,0.111820,-0.198860,0.125001,-0.198858,0.125000,-0.198858,0.125000,$1*%
%AMFreePoly5*
4,1,14,0.364320,0.111820,0.377500,0.080000,0.377500,-0.080000,0.364320,-0.111820,0.332500,-0.125000,-0.198860,-0.125001,-0.230681,-0.111818,-0.364320,0.021820,-0.377500,0.053640,-0.377500,0.080000,-0.364320,0.111820,-0.332500,0.125000,0.332500,0.125000,0.364320,0.111820,0.364320,0.111820,$1*%
%AMFreePoly6*
4,1,14,-0.021820,0.364320,0.111820,0.230679,0.125000,0.198858,0.125000,-0.332500,0.111820,-0.364320,0.080000,-0.377500,-0.080000,-0.377500,-0.111820,-0.364320,-0.125000,-0.332500,-0.125000,0.332500,-0.111820,0.364320,-0.080000,0.377500,-0.053640,0.377500,-0.021820,0.364320,-0.021820,0.364320,$1*%
%AMFreePoly7*
4,1,15,0.053642,0.377500,0.080000,0.377500,0.111820,0.364320,0.125000,0.332500,0.125000,-0.332500,0.111820,-0.364320,0.080000,-0.377500,-0.080000,-0.377500,-0.111820,-0.364320,-0.125000,-0.332500,-0.125000,0.198860,-0.111820,0.230680,0.021820,0.364320,0.053640,0.377501,0.053642,0.377500,0.053642,0.377500,$1*%
%AMFreePoly8*
4,1,18,-0.039645,0.622355,-0.025000,0.587000,-0.025000,0.187000,0.350000,0.187000,0.385355,0.172355,0.400000,0.137000,0.400000,-0.113000,0.385355,-0.148355,0.350000,-0.163000,-0.487500,-0.163000,-0.522855,-0.148355,-0.560355,-0.110855,-0.575000,-0.075500,-0.575000,0.587000,-0.560355,0.622355,-0.525000,0.637000,-0.075000,0.637000,-0.039645,0.622355,-0.039645,0.622355,$1*%
%AMFreePoly9*
4,1,18,0.385355,0.148355,0.400000,0.113000,0.400000,-0.137000,0.385355,-0.172355,0.350000,-0.187000,-0.025000,-0.187000,-0.025000,-0.587000,-0.039645,-0.622355,-0.075000,-0.637000,-0.525000,-0.637000,-0.560355,-0.622355,-0.575000,-0.587000,-0.575000,0.075500,-0.560355,0.110855,-0.522855,0.148355,-0.487500,0.163000,0.350000,0.163000,0.385355,0.148355,0.385355,0.148355,$1*%
G04 Aperture macros list end*
%ADD10R,0.840000X0.840000*%
%ADD11C,0.840000*%
%ADD12C,1.850000*%
%ADD13C,3.200000*%
%ADD14RoundRect,0.250001X-1.099999X1.099999X-1.099999X-1.099999X1.099999X-1.099999X1.099999X1.099999X0*%
%ADD15C,2.700000*%
%ADD16RoundRect,0.200000X-0.200000X-0.275000X0.200000X-0.275000X0.200000X0.275000X-0.200000X0.275000X0*%
%ADD17R,2.300000X2.500000*%
%ADD18R,0.650000X0.400000*%
%ADD19R,0.740000X2.400000*%
%ADD20RoundRect,0.200000X0.200000X0.275000X-0.200000X0.275000X-0.200000X-0.275000X0.200000X-0.275000X0*%
%ADD21RoundRect,0.225000X0.250000X-0.225000X0.250000X0.225000X-0.250000X0.225000X-0.250000X-0.225000X0*%
%ADD22RoundRect,0.218750X0.381250X-0.218750X0.381250X0.218750X-0.381250X0.218750X-0.381250X-0.218750X0*%
%ADD23RoundRect,0.250000X-1.050000X-0.550000X1.050000X-0.550000X1.050000X0.550000X-1.050000X0.550000X0*%
%ADD24R,1.117800X0.449200*%
%ADD25R,0.500000X0.813000*%
%ADD26RoundRect,0.225000X-0.225000X-0.250000X0.225000X-0.250000X0.225000X0.250000X-0.225000X0.250000X0*%
%ADD27RoundRect,0.150000X0.150000X-0.587500X0.150000X0.587500X-0.150000X0.587500X-0.150000X-0.587500X0*%
%ADD28RoundRect,0.200000X0.275000X-0.200000X0.275000X0.200000X-0.275000X0.200000X-0.275000X-0.200000X0*%
%ADD29FreePoly0,270.000000*%
%ADD30RoundRect,0.062500X-0.062500X0.375000X-0.062500X-0.375000X0.062500X-0.375000X0.062500X0.375000X0*%
%ADD31FreePoly1,270.000000*%
%ADD32FreePoly2,270.000000*%
%ADD33RoundRect,0.062500X-0.375000X0.062500X-0.375000X-0.062500X0.375000X-0.062500X0.375000X0.062500X0*%
%ADD34FreePoly3,270.000000*%
%ADD35FreePoly4,270.000000*%
%ADD36FreePoly5,270.000000*%
%ADD37FreePoly6,270.000000*%
%ADD38FreePoly7,270.000000*%
%ADD39RoundRect,0.225000X0.225000X0.250000X-0.225000X0.250000X-0.225000X-0.250000X0.225000X-0.250000X0*%
%ADD40RoundRect,0.225000X-0.250000X0.225000X-0.250000X-0.225000X0.250000X-0.225000X0.250000X0.225000X0*%
%ADD41R,0.600000X0.450000*%
%ADD42RoundRect,0.200000X-0.275000X0.200000X-0.275000X-0.200000X0.275000X-0.200000X0.275000X0.200000X0*%
%ADD43R,0.725000X0.300000*%
%ADD44R,0.700000X0.250000*%
%ADD45R,0.850000X0.300000*%
%ADD46R,0.550000X0.975000*%
%ADD47R,0.250012X1.410005*%
%ADD48FreePoly8,90.000000*%
%ADD49R,0.300000X0.725000*%
%ADD50FreePoly9,90.000000*%
%ADD51R,0.700000X0.900000*%
%ADD52R,0.254000X0.762000*%
%ADD53R,0.762000X0.254000*%
%ADD54C,0.500000*%
%ADD55R,3.800000X3.800000*%
%ADD56RoundRect,0.218750X-0.218750X-0.256250X0.218750X-0.256250X0.218750X0.256250X-0.218750X0.256250X0*%
%ADD57RoundRect,0.150000X0.587500X0.150000X-0.587500X0.150000X-0.587500X-0.150000X0.587500X-0.150000X0*%
%ADD58R,0.450000X0.600000*%
%ADD59R,2.000000X1.500000*%
%ADD60R,2.000000X3.800000*%
%ADD61RoundRect,0.250000X0.262500X0.450000X-0.262500X0.450000X-0.262500X-0.450000X0.262500X-0.450000X0*%
%ADD62RoundRect,0.150000X-0.150000X0.512500X-0.150000X-0.512500X0.150000X-0.512500X0.150000X0.512500X0*%
%ADD63RoundRect,0.150000X-0.150000X0.825000X-0.150000X-0.825000X0.150000X-0.825000X0.150000X0.825000X0*%
%ADD64R,1.150000X1.000000*%
G04 APERTURE END LIST*
D10*
%TO.C,J9*%
X125700000Y-65980000D03*
D11*
X126350000Y-66980000D03*
X127000000Y-65980000D03*
X127650000Y-66980000D03*
X128300000Y-65980000D03*
D12*
X123425000Y-66200000D03*
X130575000Y-66200000D03*
%TD*%
D13*
%TO.C,H1*%
X107800000Y-87000000D03*
%TD*%
D14*
%TO.C,J7*%
X150850000Y-67842500D03*
D15*
X150850000Y-71802500D03*
%TD*%
D13*
%TO.C,H2*%
X126100000Y-73900000D03*
%TD*%
D16*
%TO.C,R12*%
X102225000Y-74600000D03*
X103875000Y-74600000D03*
%TD*%
D17*
%TO.C,D8*%
X146700000Y-67492500D03*
X146700000Y-71792500D03*
%TD*%
D18*
%TO.C,U4*%
X108500000Y-76100000D03*
X108500000Y-75450000D03*
X108500000Y-74800000D03*
X110400000Y-74800000D03*
X110400000Y-76100000D03*
%TD*%
D19*
%TO.C,J3*%
X153640000Y-93950000D03*
X153640000Y-90050000D03*
X152370000Y-93950000D03*
X152370000Y-90050000D03*
X151100000Y-93950000D03*
X151100000Y-90050000D03*
X149830000Y-93950000D03*
X149830000Y-90050000D03*
X148560000Y-93950000D03*
X148560000Y-90050000D03*
%TD*%
D20*
%TO.C,R11*%
X116675000Y-65700000D03*
X115025000Y-65700000D03*
%TD*%
D21*
%TO.C,C23*%
X142300000Y-70075000D03*
X142300000Y-68525000D03*
%TD*%
D16*
%TO.C,R13*%
X105425000Y-65700000D03*
X107075000Y-65700000D03*
%TD*%
D22*
%TO.C,L1*%
X137800000Y-73612500D03*
X137800000Y-71487500D03*
%TD*%
D23*
%TO.C,C16*%
X144250000Y-85150000D03*
X147850000Y-85150000D03*
%TD*%
D24*
%TO.C,U7*%
X103870901Y-89299999D03*
X103870901Y-90100000D03*
X103870901Y-90900001D03*
X103870901Y-91699999D03*
X103870901Y-92500000D03*
X103870901Y-93299999D03*
D25*
X102500000Y-93018498D03*
D24*
X101129099Y-93300001D03*
X101129099Y-92500000D03*
X101129099Y-91699999D03*
X101129099Y-90900001D03*
X101129099Y-90100000D03*
X101129099Y-89300001D03*
D25*
X102500000Y-89581502D03*
%TD*%
D26*
%TO.C,C15*%
X141925000Y-88450000D03*
X143475000Y-88450000D03*
%TD*%
D27*
%TO.C,D2*%
X116800000Y-71687500D03*
X114900000Y-71687500D03*
X115850000Y-69812500D03*
%TD*%
D28*
%TO.C,R14*%
X140800000Y-66725000D03*
X140800000Y-65075000D03*
%TD*%
D21*
%TO.C,C1*%
X114000000Y-76275000D03*
X114000000Y-74725000D03*
%TD*%
D29*
%TO.C,U3*%
X116100000Y-77952500D03*
D30*
X116600000Y-78012500D03*
X117100000Y-78012500D03*
X117600000Y-78012500D03*
X118100000Y-78012500D03*
X118600000Y-78012500D03*
D31*
X119100000Y-77952500D03*
D32*
X119597500Y-78450000D03*
D33*
X119537500Y-78950000D03*
X119537500Y-79450000D03*
X119537500Y-79950000D03*
X119537500Y-80450000D03*
X119537500Y-80950000D03*
D34*
X119597500Y-81450000D03*
D35*
X119100000Y-81947500D03*
D30*
X118600000Y-81887500D03*
X118100000Y-81887500D03*
X117600000Y-81887500D03*
X117100000Y-81887500D03*
X116600000Y-81887500D03*
D36*
X116100000Y-81947500D03*
D37*
X115602500Y-81450000D03*
D33*
X115662500Y-80950000D03*
X115662500Y-80450000D03*
X115662500Y-79950000D03*
X115662500Y-79450000D03*
X115662500Y-78950000D03*
D38*
X115602500Y-78450000D03*
%TD*%
D21*
%TO.C,C26*%
X133300000Y-70075000D03*
X133300000Y-68525000D03*
%TD*%
D39*
%TO.C,C27*%
X102975000Y-87400000D03*
X101425000Y-87400000D03*
%TD*%
D40*
%TO.C,C2*%
X119100000Y-74725000D03*
X119100000Y-76275000D03*
%TD*%
D28*
%TO.C,R3*%
X112450000Y-76325000D03*
X112450000Y-74675000D03*
%TD*%
D41*
%TO.C,D5*%
X105200000Y-67700000D03*
X107300000Y-67700000D03*
%TD*%
D40*
%TO.C,C17*%
X132200000Y-94225000D03*
X132200000Y-95775000D03*
%TD*%
D42*
%TO.C,R6*%
X106900000Y-76875000D03*
X106900000Y-78525000D03*
%TD*%
D40*
%TO.C,C29*%
X132200000Y-90675000D03*
X132200000Y-92225000D03*
%TD*%
D21*
%TO.C,C19*%
X136050000Y-73575000D03*
X136050000Y-72025000D03*
%TD*%
D40*
%TO.C,C6*%
X131500000Y-68525000D03*
X131500000Y-70075000D03*
%TD*%
D43*
%TO.C,U5*%
X139237500Y-67475874D03*
D44*
X139249500Y-67976000D03*
D45*
X139174500Y-68476126D03*
D46*
X138900000Y-69362500D03*
D47*
X137800000Y-69144500D03*
D46*
X136700000Y-69362500D03*
D45*
X136425500Y-68476126D03*
D44*
X136350500Y-67976000D03*
D43*
X136362500Y-67475874D03*
D48*
X136586685Y-66600500D03*
D49*
X137049811Y-66612500D03*
X137549937Y-66612500D03*
X138050063Y-66612500D03*
X138550189Y-66612500D03*
D50*
X139013315Y-66600500D03*
%TD*%
D51*
%TO.C,Q1*%
X162450000Y-73050000D03*
X161500000Y-73050000D03*
X160550000Y-73050000D03*
X160550000Y-70950000D03*
X161500000Y-70950000D03*
X162450000Y-70950000D03*
%TD*%
D26*
%TO.C,C13*%
X141925000Y-89950000D03*
X143475000Y-89950000D03*
%TD*%
D51*
%TO.C,Q2*%
X162450000Y-84550000D03*
X161500000Y-84550000D03*
X160550000Y-84550000D03*
X160550000Y-82450000D03*
X161500000Y-82450000D03*
X162450000Y-82450000D03*
%TD*%
D21*
%TO.C,C31*%
X131400000Y-78575000D03*
X131400000Y-77025000D03*
%TD*%
D28*
%TO.C,R16*%
X157000000Y-94325000D03*
X157000000Y-92675000D03*
%TD*%
D40*
%TO.C,C22*%
X141050000Y-72025000D03*
X141050000Y-73575000D03*
%TD*%
D39*
%TO.C,C7*%
X113275000Y-79960000D03*
X111725000Y-79960000D03*
%TD*%
D20*
%TO.C,R5*%
X151725000Y-83200000D03*
X150075000Y-83200000D03*
%TD*%
D21*
%TO.C,C25*%
X105600000Y-93275000D03*
X105600000Y-91725000D03*
%TD*%
D28*
%TO.C,R18*%
X157250000Y-84325000D03*
X157250000Y-82675000D03*
%TD*%
%TO.C,R19*%
X159000000Y-72825000D03*
X159000000Y-71175000D03*
%TD*%
D42*
%TO.C,R1*%
X148250000Y-79175000D03*
X148250000Y-80825000D03*
%TD*%
D41*
%TO.C,D3*%
X101950000Y-76650000D03*
X104050000Y-76650000D03*
%TD*%
D39*
%TO.C,C5*%
X136300000Y-98000000D03*
X134750000Y-98000000D03*
%TD*%
D52*
%TO.C,U2*%
X139490000Y-96095700D03*
X138990001Y-96095700D03*
X138489999Y-96095700D03*
X137990000Y-96095700D03*
X137490001Y-96095700D03*
X136989999Y-96095700D03*
X136490000Y-96095700D03*
D53*
X135564300Y-95170000D03*
X135564300Y-94670001D03*
X135564300Y-94169999D03*
X135564300Y-93670000D03*
X135564300Y-93170001D03*
X135564300Y-92669999D03*
X135564300Y-92170000D03*
D52*
X136490000Y-91244300D03*
X136989999Y-91244300D03*
X137490001Y-91244300D03*
X137990000Y-91244300D03*
X138489999Y-91244300D03*
X138990001Y-91244300D03*
X139490000Y-91244300D03*
D53*
X140415700Y-92170000D03*
X140415700Y-92669999D03*
X140415700Y-93170001D03*
X140415700Y-93670000D03*
X140415700Y-94169999D03*
X140415700Y-94670001D03*
X140415700Y-95170000D03*
D54*
X137340000Y-92370000D03*
X139290000Y-93020000D03*
X137990000Y-93670000D03*
D55*
X137990000Y-93670000D03*
D54*
X136690000Y-94320000D03*
X139290000Y-94320000D03*
X138640000Y-94970000D03*
X137990000Y-92370000D03*
X139290000Y-92370000D03*
X137340000Y-93020000D03*
X137990000Y-94970000D03*
X138640000Y-93020000D03*
X138640000Y-94320000D03*
X137990000Y-94370000D03*
X137340000Y-94320000D03*
X137340000Y-93653331D03*
X136690000Y-92370000D03*
X138640000Y-93670000D03*
X136690000Y-93670000D03*
X139290000Y-93670000D03*
X136690000Y-92970000D03*
X138640000Y-92370000D03*
X137990000Y-93020000D03*
X137340000Y-94970000D03*
X136690000Y-94970000D03*
X139290000Y-94970000D03*
%TD*%
D21*
%TO.C,C18*%
X139550000Y-73575000D03*
X139550000Y-72025000D03*
%TD*%
D56*
%TO.C,FB1*%
X111712500Y-78460000D03*
X113287500Y-78460000D03*
%TD*%
D26*
%TO.C,C8*%
X118025000Y-83600000D03*
X119575000Y-83600000D03*
%TD*%
D39*
%TO.C,C12*%
X113275000Y-81787500D03*
X111725000Y-81787500D03*
%TD*%
D21*
%TO.C,C30*%
X142400000Y-66675000D03*
X142400000Y-65125000D03*
%TD*%
D26*
%TO.C,C21*%
X133275000Y-66900000D03*
X134825000Y-66900000D03*
%TD*%
D21*
%TO.C,C24*%
X140800000Y-70075000D03*
X140800000Y-68525000D03*
%TD*%
D40*
%TO.C,C20*%
X134550000Y-72025000D03*
X134550000Y-73575000D03*
%TD*%
D57*
%TO.C,D12*%
X128437500Y-78950000D03*
X128437500Y-80850000D03*
X126562500Y-79900000D03*
%TD*%
D58*
%TO.C,D9*%
X132200000Y-75350000D03*
X132200000Y-73250000D03*
%TD*%
D57*
%TO.C,D7*%
X145937500Y-79050000D03*
X145937500Y-80950000D03*
X144062500Y-80000000D03*
%TD*%
D59*
%TO.C,U6*%
X134400000Y-80600000D03*
X134400000Y-78300000D03*
D60*
X140700000Y-78300000D03*
D59*
X134400000Y-76000000D03*
%TD*%
D51*
%TO.C,Q3*%
X162200000Y-94550000D03*
X161250000Y-94550000D03*
X160300000Y-94550000D03*
X160300000Y-92450000D03*
X161250000Y-92450000D03*
X162200000Y-92450000D03*
%TD*%
D42*
%TO.C,R2*%
X107200000Y-91675000D03*
X107200000Y-93325000D03*
%TD*%
D61*
%TO.C,R8*%
X143962500Y-91950000D03*
X142137500Y-91950000D03*
%TD*%
D62*
%TO.C,DA1*%
X159950000Y-76962500D03*
X160900000Y-76962500D03*
X161850000Y-76962500D03*
X161850000Y-79237500D03*
X160900000Y-79237500D03*
X159950000Y-79237500D03*
%TD*%
D39*
%TO.C,C4*%
X139475000Y-98000000D03*
X137925000Y-98000000D03*
%TD*%
D40*
%TO.C,C3*%
X133950000Y-94225000D03*
X133950000Y-95775000D03*
%TD*%
D26*
%TO.C,C14*%
X142825000Y-96600000D03*
X144375000Y-96600000D03*
%TD*%
D16*
%TO.C,R10*%
X138375000Y-88450000D03*
X140025000Y-88450000D03*
%TD*%
D63*
%TO.C,U1*%
X150095000Y-75775000D03*
X151365000Y-75775000D03*
X152635000Y-75775000D03*
X153905000Y-75775000D03*
X153905000Y-80725000D03*
X152635000Y-80725000D03*
X151365000Y-80725000D03*
X150095000Y-80725000D03*
%TD*%
D28*
%TO.C,R20*%
X159000000Y-84325000D03*
X159000000Y-82675000D03*
%TD*%
D16*
%TO.C,R9*%
X134875000Y-88450000D03*
X136525000Y-88450000D03*
%TD*%
D27*
%TO.C,D6*%
X107200000Y-71687500D03*
X105300000Y-71687500D03*
X106250000Y-69812500D03*
%TD*%
D21*
%TO.C,C28*%
X134800000Y-70075000D03*
X134800000Y-68525000D03*
%TD*%
D61*
%TO.C,R7*%
X143962500Y-94700000D03*
X142137500Y-94700000D03*
%TD*%
D28*
%TO.C,R22*%
X131400000Y-82125000D03*
X131400000Y-80475000D03*
%TD*%
%TO.C,R21*%
X158750000Y-94325000D03*
X158750000Y-92675000D03*
%TD*%
D40*
%TO.C,C10*%
X121500000Y-77225000D03*
X121500000Y-78775000D03*
%TD*%
D27*
%TO.C,D4*%
X103950000Y-80687500D03*
X102050000Y-80687500D03*
X103000000Y-78812500D03*
%TD*%
D42*
%TO.C,R4*%
X133950000Y-90625000D03*
X133950000Y-92275000D03*
%TD*%
D21*
%TO.C,C9*%
X106900000Y-75375000D03*
X106900000Y-73825000D03*
%TD*%
D28*
%TO.C,R17*%
X157250000Y-72825000D03*
X157250000Y-71175000D03*
%TD*%
D41*
%TO.C,D10*%
X127150000Y-68900000D03*
X125050000Y-68900000D03*
%TD*%
%TO.C,D1*%
X116900000Y-67700000D03*
X114800000Y-67700000D03*
%TD*%
D64*
%TO.C,Y1*%
X115625000Y-74800000D03*
X117375000Y-74800000D03*
X117375000Y-76200000D03*
X115625000Y-76200000D03*
%TD*%
D26*
%TO.C,C11*%
X142825000Y-98150000D03*
X144375000Y-98150000D03*
%TD*%
M02*
