%TF.GenerationSoftware,KiCad,Pcbnew,7.0.5-4d25ed1034~172~ubuntu22.04.1*%
%TF.CreationDate,2023-10-26T19:17:36+02:00*%
%TF.ProjectId,votoco,766f746f-636f-42e6-9b69-6361645f7063,rev?*%
%TF.SameCoordinates,Original*%
%TF.FileFunction,Paste,Top*%
%TF.FilePolarity,Positive*%
%FSLAX46Y46*%
G04 Gerber Fmt 4.6, Leading zero omitted, Abs format (unit mm)*
G04 Created by KiCad (PCBNEW 7.0.5-4d25ed1034~172~ubuntu22.04.1) date 2023-10-26 19:17:36*
%MOMM*%
%LPD*%
G01*
G04 APERTURE LIST*
G04 Aperture macros list*
%AMRoundRect*
0 Rectangle with rounded corners*
0 $1 Rounding radius*
0 $2 $3 $4 $5 $6 $7 $8 $9 X,Y pos of 4 corners*
0 Add a 4 corners polygon primitive as box body*
4,1,4,$2,$3,$4,$5,$6,$7,$8,$9,$2,$3,0*
0 Add four circle primitives for the rounded corners*
1,1,$1+$1,$2,$3*
1,1,$1+$1,$4,$5*
1,1,$1+$1,$6,$7*
1,1,$1+$1,$8,$9*
0 Add four rect primitives between the rounded corners*
20,1,$1+$1,$2,$3,$4,$5,0*
20,1,$1+$1,$4,$5,$6,$7,0*
20,1,$1+$1,$6,$7,$8,$9,0*
20,1,$1+$1,$8,$9,$2,$3,0*%
G04 Aperture macros list end*
%ADD10RoundRect,0.250000X-2.500000X0.250000X-2.500000X-0.250000X2.500000X-0.250000X2.500000X0.250000X0*%
%ADD11RoundRect,0.250000X-1.250000X0.550000X-1.250000X-0.550000X1.250000X-0.550000X1.250000X0.550000X0*%
%ADD12RoundRect,0.200000X-0.275000X0.200000X-0.275000X-0.200000X0.275000X-0.200000X0.275000X0.200000X0*%
%ADD13R,1.050000X1.150000*%
%ADD14R,0.600000X1.100000*%
%ADD15RoundRect,0.250000X0.250000X2.500000X-0.250000X2.500000X-0.250000X-2.500000X0.250000X-2.500000X0*%
%ADD16RoundRect,0.250000X0.550000X1.250000X-0.550000X1.250000X-0.550000X-1.250000X0.550000X-1.250000X0*%
%ADD17RoundRect,0.218750X-0.256250X0.218750X-0.256250X-0.218750X0.256250X-0.218750X0.256250X0.218750X0*%
G04 APERTURE END LIST*
D10*
%TO.C,J1*%
X149800000Y-89000000D03*
X149800000Y-91000000D03*
X149800000Y-93000000D03*
X149800000Y-95000000D03*
D11*
X152050000Y-86600000D03*
X152050000Y-97400000D03*
%TD*%
D12*
%TO.C,R16*%
X113300000Y-83862500D03*
X113300000Y-85512500D03*
%TD*%
D10*
%TO.C,J2*%
X149800000Y-79000000D03*
X149800000Y-81000000D03*
D11*
X152050000Y-76600000D03*
X152050000Y-83400000D03*
%TD*%
D13*
%TO.C,SW1*%
X101675000Y-93075000D03*
X101675000Y-89725000D03*
X103125000Y-93075000D03*
X103125000Y-89725000D03*
D14*
X100650000Y-91400000D03*
%TD*%
D10*
%TO.C,J14*%
X158500000Y-80400000D03*
X158500000Y-82400000D03*
D11*
X160750000Y-78000000D03*
X160750000Y-84800000D03*
%TD*%
D10*
%TO.C,J13*%
X158500000Y-70587500D03*
X158500000Y-72587500D03*
D11*
X160750000Y-68187500D03*
X160750000Y-74987500D03*
%TD*%
D15*
%TO.C,J10*%
X106300000Y-67500000D03*
X104300000Y-67500000D03*
D16*
X108700000Y-69750000D03*
X101900000Y-69750000D03*
%TD*%
D15*
%TO.C,J3*%
X110300000Y-76200000D03*
X108300000Y-76200000D03*
X106300000Y-76200000D03*
X104300000Y-76200000D03*
D16*
X112700000Y-78450000D03*
X101900000Y-78450000D03*
%TD*%
D10*
%TO.C,J8*%
X141100000Y-79000000D03*
X141100000Y-81000000D03*
X141100000Y-83000000D03*
D11*
X143350000Y-76600000D03*
X143350000Y-85400000D03*
%TD*%
D10*
%TO.C,J12*%
X132500000Y-79000000D03*
X132500000Y-81000000D03*
D11*
X134750000Y-76600000D03*
X134750000Y-83400000D03*
%TD*%
D15*
%TO.C,J11*%
X138100000Y-67500000D03*
X136100000Y-67500000D03*
D16*
X140500000Y-69750000D03*
X133700000Y-69750000D03*
%TD*%
D10*
%TO.C,J15*%
X158500000Y-90400000D03*
X158500000Y-92400000D03*
D11*
X160750000Y-88000000D03*
X160750000Y-94800000D03*
%TD*%
D15*
%TO.C,J6*%
X118000000Y-67500000D03*
X116000000Y-67500000D03*
X114000000Y-67500000D03*
D16*
X120400000Y-69750000D03*
X111600000Y-69750000D03*
%TD*%
D17*
%TO.C,D11*%
X114900000Y-83900000D03*
X114900000Y-85475000D03*
%TD*%
D13*
%TO.C,SW2*%
X101675000Y-87875000D03*
X101675000Y-84525000D03*
X103125000Y-87875000D03*
X103125000Y-84525000D03*
D14*
X100650000Y-86200000D03*
%TD*%
M02*
