M48
; DRILL file {KiCad 7.0.5-4d25ed1034~172~ubuntu22.04.1} date Do 26 Okt 2023 19:17:18
; FORMAT={-:-/ absolute / metric / decimal}
; #@! TF.CreationDate,2023-10-26T19:17:18+02:00
; #@! TF.GenerationSoftware,Kicad,Pcbnew,7.0.5-4d25ed1034~172~ubuntu22.04.1
; #@! TF.FileFunction,Plated,1,4,PTH
FMAT,2
METRIC
; #@! TA.AperFunction,Plated,PTH,ViaDrill
T1C0.200
; #@! TA.AperFunction,Plated,PTH,ComponentDrill
T2C0.200
; #@! TA.AperFunction,Plated,PTH,ViaDrill
T3C0.400
; #@! TA.AperFunction,Plated,PTH,ComponentDrill
T4C0.440
; #@! TA.AperFunction,Plated,PTH,ComponentDrill
T5C1.350
; #@! TA.AperFunction,Plated,PTH,ComponentDrill
T6C1.700
%
G90
G05
T1
X101.4Y-86.6
X102.05Y-73.4
X102.1Y-92.2
X102.2Y-91.36
X102.4Y-88.8
X102.862Y-90.75
X103.0Y-86.6
X103.1Y-76.65
X103.1Y-83.7
X103.2Y-78.3
X104.0Y-88.8
X104.6Y-73.3
X104.67Y-82.96
X104.7Y-71.7
X104.8Y-91.7
X105.2Y-68.5
X105.35Y-75.85
X105.35Y-76.8
X105.35Y-77.8
X106.25Y-72.9
X106.4Y-93.3
X106.6Y-91.25
X107.249Y-69.7
X107.8Y-71.9
X108.064Y-92.314
X108.5Y-93.4
X109.0Y-75.8
X109.025Y-80.912
X109.2Y-73.6
X109.91Y-82.92
X110.02Y-93.4
X110.35Y-68.65
X110.35Y-75.65
X110.62Y-82.93
X110.925Y-79.312
X110.925Y-81.013
X110.95Y-92.85
X111.169Y-78.45
X111.2Y-72.85
X111.2Y-73.55
X111.23Y-76.691
X111.29Y-82.93
X111.3Y-66.27
X111.45Y-75.4
X111.477Y-76.123
X111.7Y-80.45
X111.7Y-81.25
X111.868Y-76.648
X112.9Y-75.0
X112.95Y-81.6
X113.3Y-84.587
X113.7Y-72.825
X113.79Y-75.67
X114.1Y-82.6
X114.2Y-84.587
X114.35Y-74.3
X114.35Y-75.68
X114.36Y-76.63
X114.4Y-78.89
X114.4Y-79.51
X114.42Y-78.3
X114.75Y-82.2
X114.85Y-73.85
X114.869Y-68.45
X115.5Y-82.2
X115.85Y-80.35
X116.13Y-79.24
X116.35Y-73.595
X116.35Y-82.2
X116.85Y-66.95
X117.2Y-71.325
X117.25Y-73.95
X117.54Y-78.99
X117.55Y-77.88
X117.57Y-75.65
X117.85Y-82.2
X118.09Y-75.66
X118.14Y-77.88
X118.14Y-78.99
X118.4Y-83.2
X118.75Y-71.25
X118.75Y-78.98
X118.76Y-77.87
X118.8Y-65.6
X118.85Y-82.25
X119.0Y-73.35
X120.17Y-78.29
X120.2Y-76.44
X120.2Y-77.48
X120.21Y-75.62
X120.3Y-81.0
X120.4Y-79.8
X120.75Y-76.95
X123.75Y-81.0
X124.8Y-82.2
X125.9Y-80.95
X128.4Y-81.5
X128.5Y-78.3
X130.7Y-68.5
X131.4Y-90.7
X131.48Y-98.74
X131.6Y-70.7
X131.6Y-73.2
X132.1Y-84.0
X132.2Y-70.1
X132.2Y-70.7
X132.2Y-77.0
X132.2Y-92.9
X132.2Y-96.55
X132.4Y-68.2
X132.4Y-68.7
X132.4Y-69.2
X132.5Y-78.2
X132.6Y-66.7
X132.7Y-67.4
X133.1Y-94.25
X133.14Y-64.77
X133.4Y-91.2
X133.9Y-67.4
X134.4Y-81.5
X134.4Y-93.3
X134.6Y-67.8
X134.7Y-85.925
X134.75Y-87.025
X134.9Y-70.8
X135.0Y-69.2
X135.1Y-67.8
X135.2Y-65.4
X135.2Y-90.0
X135.4Y-70.7
X135.4Y-97.8
X135.4Y-98.4
X135.6Y-78.3
X135.6Y-80.6
X135.6Y-81.1
X136.0Y-79.5
X136.1Y-90.6
X136.5Y-90.0
X136.7Y-80.0
X137.2Y-65.0
X137.2Y-70.3
X137.2Y-76.5
X137.375Y-86.625
X137.4Y-88.0
X137.8Y-78.3
X137.8Y-84.45
X137.925Y-86.625
X138.225Y-89.05
X138.3Y-74.75
X138.475Y-86.6
X139.0Y-65.8
X139.15Y-89.025
X139.175Y-86.0
X139.2Y-84.1
X139.4Y-77.8
X140.1Y-65.1
X140.2Y-67.8
X140.2Y-97.0
X140.7Y-76.2
X140.8Y-67.8
X141.1Y-89.55
X141.1Y-92.1
X141.1Y-95.25
X141.125Y-90.125
X141.15Y-83.7
X141.25Y-86.65
X141.7Y-67.9
X141.7Y-69.1
X141.8Y-86.65
X141.9Y-70.7
X142.3Y-67.8
X142.35Y-86.65
X142.5Y-70.7
X142.8Y-97.35
X142.9Y-86.65
X143.0Y-70.1
X143.0Y-70.6
X143.0Y-71.1
X143.0Y-71.6
X143.1Y-65.2
X143.1Y-67.9
X143.1Y-68.5
X143.1Y-69.1
X143.3Y-91.95
X143.3Y-94.75
X143.425Y-86.65
X143.475Y-88.975
X143.5Y-70.1
X143.5Y-70.6
X143.5Y-71.1
X143.5Y-71.6
X143.95Y-86.65
X144.0Y-79.0
X144.3Y-89.85
X144.4Y-97.4
X144.65Y-91.95
X144.65Y-94.75
X145.06Y-64.51
X145.6Y-88.5
X145.85Y-65.843
X145.85Y-69.142
X145.9Y-81.6
X145.95Y-79.6
X146.2Y-87.9
X146.75Y-65.843
X146.75Y-69.142
X146.8Y-89.45
X146.8Y-93.0
X146.8Y-95.3
X146.95Y-91.6
X147.65Y-65.843
X147.65Y-69.142
X147.8Y-64.58
X148.3Y-78.1
X148.3Y-81.8
X148.6Y-96.1
X149.0Y-75.75
X149.45Y-83.2
X151.4Y-74.5
X152.7Y-74.5
X152.9Y-81.9
X153.6Y-88.1
X153.7Y-96.0
X154.18Y-64.72
X154.35Y-78.4
X155.0Y-92.8
X155.2Y-83.3
X155.4Y-70.6
X155.4Y-90.4
X155.5Y-75.8
X156.63Y-98.46
X157.28Y-65.6
X158.8Y-75.8
X158.83Y-97.89
X159.6Y-93.4
X159.8Y-71.5
X159.9Y-83.4
X160.75Y-66.49
X160.8Y-71.9
X161.07Y-97.32
X161.5Y-80.4
X161.5Y-81.7
X161.5Y-91.5
T2
X136.69Y-92.37
X136.69Y-92.97
X136.69Y-93.67
X136.69Y-94.32
X136.69Y-94.97
X137.34Y-92.37
X137.34Y-93.02
X137.34Y-93.653
X137.34Y-94.32
X137.34Y-94.97
X137.99Y-92.37
X137.99Y-93.02
X137.99Y-93.67
X137.99Y-94.37
X137.99Y-94.97
X138.64Y-92.37
X138.64Y-93.02
X138.64Y-93.67
X138.64Y-94.32
X138.64Y-94.97
X139.29Y-92.37
X139.29Y-93.02
X139.29Y-93.67
X139.29Y-94.32
X139.29Y-94.97
T3
X142.3Y-73.5
T4
X125.7Y-65.98
X126.35Y-66.98
X127.0Y-65.98
X127.65Y-66.98
X128.3Y-65.98
T5
X123.425Y-66.2
X130.575Y-66.2
T6
X150.85Y-67.843
X150.85Y-71.802
T0
M30
