M48
; DRILL file {KiCad (6.0.9)} date Sun Dec 25 13:15:34 2022
; FORMAT={-:-/ absolute / metric / decimal}
; #@! TF.CreationDate,2022-12-25T13:15:34+01:00
; #@! TF.GenerationSoftware,Kicad,Pcbnew,(6.0.9)
; #@! TF.FileFunction,Plated,1,4,PTH
FMAT,2
METRIC
; #@! TA.AperFunction,Plated,PTH,ViaDrill
T1C0.200
; #@! TA.AperFunction,Plated,PTH,ComponentDrill
T2C0.200
; #@! TA.AperFunction,Plated,PTH,ViaDrill
T3C0.400
; #@! TA.AperFunction,Plated,PTH,ComponentDrill
T4C0.440
; #@! TA.AperFunction,Plated,PTH,ComponentDrill
T5C1.350
; #@! TA.AperFunction,Plated,PTH,ComponentDrill
T6C1.700
%
G90
G05
T1
X101.4Y-86.6
X102.0Y-81.8
X102.1Y-92.2
X102.2Y-91.3
X102.4Y-88.8
X102.6Y-76.7
X102.862Y-90.75
X103.0Y-86.6
X103.9Y-81.8
X104.0Y-88.8
X104.3Y-83.6
X104.7Y-71.7
X104.8Y-91.7
X105.2Y-68.5
X105.4Y-80.0
X106.4Y-93.3
X107.2Y-92.3
X107.249Y-69.7
X107.3Y-77.9
X107.8Y-71.9
X107.8Y-74.4
X108.5Y-93.4
X109.0Y-77.2
X109.1Y-92.5
X109.55Y-82.85
X110.0Y-72.8
X110.4Y-75.6
X110.75Y-92.6
X111.0Y-78.4
X111.7Y-80.8
X112.0Y-84.3
X113.2Y-67.5
X113.3Y-70.8
X113.3Y-84.587
X113.6Y-79.2
X113.6Y-80.9
X114.2Y-84.587
X114.3Y-71.7
X114.5Y-81.725
X114.7Y-78.2
X114.7Y-79.4
X114.7Y-80.3
X114.8Y-76.3
X115.4Y-82.3
X115.9Y-73.1
X116.3Y-82.8
X116.45Y-79.95
X116.7Y-79.3
X116.85Y-66.95
X116.961Y-83.03
X117.2Y-80.55
X117.4Y-71.3
X117.6Y-78.7
X117.6Y-79.65
X117.6Y-81.1
X118.0Y-77.2
X118.3Y-74.8
X118.4Y-79.0
X118.5Y-81.1
X118.8Y-65.6
X118.8Y-82.96
X119.6Y-82.9
X119.9Y-82.1
X120.4Y-77.624
X120.576Y-79.014
X120.63Y-78.285
X120.8Y-81.6
X121.5Y-81.6
X122.0Y-82.5
X122.2Y-78.8
X122.7Y-77.8
X122.7Y-83.1
X123.2Y-78.9
X124.498Y-81.169
X124.9Y-79.0
X125.7Y-81.3
X126.6Y-79.3
X128.4Y-81.5
X128.5Y-78.3
X129.6Y-71.2
X130.7Y-68.5
X131.4Y-90.7
X131.6Y-70.7
X131.6Y-73.2
X132.1Y-84.0
X132.2Y-70.1
X132.2Y-70.7
X132.2Y-77.0
X132.2Y-92.9
X132.2Y-96.55
X132.4Y-68.2
X132.4Y-68.7
X132.4Y-69.2
X132.5Y-78.2
X132.6Y-66.7
X132.7Y-67.4
X132.9Y-80.0
X133.1Y-94.25
X133.4Y-91.2
X133.9Y-67.4
X134.4Y-81.5
X134.4Y-93.3
X134.6Y-67.8
X134.9Y-70.8
X135.0Y-69.2
X135.1Y-67.8
X135.2Y-65.4
X135.2Y-90.0
X135.4Y-70.7
X135.4Y-97.8
X135.4Y-98.4
X135.6Y-78.3
X135.6Y-80.6
X135.6Y-81.1
X136.0Y-79.5
X136.1Y-90.6
X136.5Y-90.0
X136.7Y-80.0
X137.1Y-77.6
X137.1Y-80.9
X137.2Y-65.0
X137.2Y-70.3
X137.8Y-78.3
X138.5Y-90.0
X139.0Y-65.8
X139.2Y-84.1
X139.4Y-77.8
X140.0Y-87.7
X140.1Y-65.1
X140.2Y-67.8
X140.2Y-83.95
X140.2Y-97.0
X140.7Y-76.2
X140.8Y-67.8
X141.1Y-92.1
X141.1Y-95.25
X141.15Y-83.7
X141.7Y-67.9
X141.7Y-69.1
X141.9Y-70.7
X141.9Y-89.2
X142.3Y-67.8
X142.5Y-70.7
X142.8Y-97.35
X143.0Y-70.1
X143.0Y-70.6
X143.0Y-71.1
X143.0Y-71.6
X143.1Y-65.2
X143.1Y-67.9
X143.1Y-68.5
X143.1Y-69.1
X143.3Y-91.95
X143.3Y-94.75
X143.5Y-70.1
X143.5Y-70.6
X143.5Y-71.1
X143.5Y-71.6
X143.5Y-89.2
X144.0Y-79.0
X144.4Y-97.4
X144.5Y-84.0
X144.65Y-91.95
X144.65Y-94.75
X145.0Y-84.0
X145.5Y-84.0
X145.6Y-88.5
X145.7Y-85.9
X145.85Y-65.843
X145.85Y-69.142
X145.9Y-81.6
X145.95Y-79.6
X146.2Y-87.9
X146.75Y-65.843
X146.75Y-69.142
X146.8Y-89.45
X146.8Y-93.0
X146.8Y-95.3
X146.95Y-91.6
X147.65Y-65.843
X147.65Y-69.142
X147.85Y-84.15
X147.9Y-86.15
X148.3Y-78.1
X148.3Y-81.8
X148.6Y-96.1
X149.4Y-85.15
X149.45Y-83.2
X151.4Y-74.5
X152.7Y-74.5
X152.9Y-81.9
X153.6Y-88.1
X153.7Y-96.0
X155.0Y-92.8
X155.2Y-83.3
X155.4Y-70.6
X155.4Y-90.4
X155.5Y-75.8
X158.8Y-75.8
X159.6Y-93.4
X159.8Y-71.5
X159.9Y-83.4
X160.8Y-71.9
X161.5Y-80.4
X161.5Y-81.7
X161.5Y-91.5
T2
X136.69Y-92.37
X136.69Y-92.97
X136.69Y-93.67
X136.69Y-94.32
X136.69Y-94.97
X137.34Y-92.37
X137.34Y-93.02
X137.34Y-93.653
X137.34Y-94.32
X137.34Y-94.97
X137.99Y-92.37
X137.99Y-93.02
X137.99Y-93.67
X137.99Y-94.37
X137.99Y-94.97
X138.64Y-92.37
X138.64Y-93.02
X138.64Y-93.67
X138.64Y-94.32
X138.64Y-94.97
X139.29Y-92.37
X139.29Y-93.02
X139.29Y-93.67
X139.29Y-94.32
X139.29Y-94.97
T3
X142.3Y-73.5
T4
X125.7Y-65.98
X126.35Y-66.98
X127.0Y-65.98
X127.65Y-66.98
X128.3Y-65.98
T5
X123.425Y-66.2
X130.575Y-66.2
T6
X150.85Y-67.843
X150.85Y-71.802
T0
M30
