%TF.GenerationSoftware,KiCad,Pcbnew,7.0.5-4d25ed1034~172~ubuntu22.04.1*%
%TF.CreationDate,2023-06-17T20:58:29+02:00*%
%TF.ProjectId,votoco,766f746f-636f-42e6-9b69-6361645f7063,rev?*%
%TF.SameCoordinates,Original*%
%TF.FileFunction,Soldermask,Top*%
%TF.FilePolarity,Negative*%
%FSLAX46Y46*%
G04 Gerber Fmt 4.6, Leading zero omitted, Abs format (unit mm)*
G04 Created by KiCad (PCBNEW 7.0.5-4d25ed1034~172~ubuntu22.04.1) date 2023-06-17 20:58:29*
%MOMM*%
%LPD*%
G01*
G04 APERTURE LIST*
G04 Aperture macros list*
%AMRoundRect*
0 Rectangle with rounded corners*
0 $1 Rounding radius*
0 $2 $3 $4 $5 $6 $7 $8 $9 X,Y pos of 4 corners*
0 Add a 4 corners polygon primitive as box body*
4,1,4,$2,$3,$4,$5,$6,$7,$8,$9,$2,$3,0*
0 Add four circle primitives for the rounded corners*
1,1,$1+$1,$2,$3*
1,1,$1+$1,$4,$5*
1,1,$1+$1,$6,$7*
1,1,$1+$1,$8,$9*
0 Add four rect primitives between the rounded corners*
20,1,$1+$1,$2,$3,$4,$5,0*
20,1,$1+$1,$4,$5,$6,$7,0*
20,1,$1+$1,$6,$7,$8,$9,0*
20,1,$1+$1,$8,$9,$2,$3,0*%
%AMFreePoly0*
4,1,19,0.550000,-0.750000,0.000000,-0.750000,0.000000,-0.744911,-0.071157,-0.744911,-0.207708,-0.704816,-0.327430,-0.627875,-0.420627,-0.520320,-0.479746,-0.390866,-0.500000,-0.250000,-0.500000,0.250000,-0.479746,0.390866,-0.420627,0.520320,-0.327430,0.627875,-0.207708,0.704816,-0.071157,0.744911,0.000000,0.744911,0.000000,0.750000,0.550000,0.750000,0.550000,-0.750000,0.550000,-0.750000,
$1*%
%AMFreePoly1*
4,1,19,0.000000,0.744911,0.071157,0.744911,0.207708,0.704816,0.327430,0.627875,0.420627,0.520320,0.479746,0.390866,0.500000,0.250000,0.500000,-0.250000,0.479746,-0.390866,0.420627,-0.520320,0.327430,-0.627875,0.207708,-0.704816,0.071157,-0.744911,0.000000,-0.744911,0.000000,-0.750000,-0.550000,-0.750000,-0.550000,0.750000,0.000000,0.750000,0.000000,0.744911,0.000000,0.744911,
$1*%
G04 Aperture macros list end*
%ADD10RoundRect,0.250000X-2.500000X0.250000X-2.500000X-0.250000X2.500000X-0.250000X2.500000X0.250000X0*%
%ADD11RoundRect,0.250000X-1.250000X0.550000X-1.250000X-0.550000X1.250000X-0.550000X1.250000X0.550000X0*%
%ADD12R,0.840000X0.840000*%
%ADD13C,0.840000*%
%ADD14C,1.850000*%
%ADD15RoundRect,0.200000X-0.275000X0.200000X-0.275000X-0.200000X0.275000X-0.200000X0.275000X0.200000X0*%
%ADD16FreePoly0,270.000000*%
%ADD17R,1.500000X1.000000*%
%ADD18FreePoly1,270.000000*%
%ADD19R,1.050000X1.150000*%
%ADD20R,0.600000X1.100000*%
%ADD21C,3.200000*%
%ADD22RoundRect,0.250000X0.250000X2.500000X-0.250000X2.500000X-0.250000X-2.500000X0.250000X-2.500000X0*%
%ADD23RoundRect,0.250000X0.550000X1.250000X-0.550000X1.250000X-0.550000X-1.250000X0.550000X-1.250000X0*%
%ADD24RoundRect,0.250001X-1.099999X1.099999X-1.099999X-1.099999X1.099999X-1.099999X1.099999X1.099999X0*%
%ADD25C,2.700000*%
%ADD26RoundRect,0.218750X-0.256250X0.218750X-0.256250X-0.218750X0.256250X-0.218750X0.256250X0.218750X0*%
%ADD27C,0.500000*%
G04 APERTURE END LIST*
D10*
%TO.C,J1*%
X149800000Y-89000000D03*
X149800000Y-91000000D03*
X149800000Y-93000000D03*
X149800000Y-95000000D03*
D11*
X152050000Y-86600000D03*
X152050000Y-97400000D03*
%TD*%
D12*
%TO.C,J9*%
X125700000Y-65980000D03*
D13*
X126350000Y-66980000D03*
X127000000Y-65980000D03*
X127650000Y-66980000D03*
X128300000Y-65980000D03*
D14*
X123425000Y-66200000D03*
X130575000Y-66200000D03*
%TD*%
D15*
%TO.C,R16*%
X113300000Y-83862500D03*
X113300000Y-85512500D03*
%TD*%
D16*
%TO.C,JP1*%
X115500000Y-76100000D03*
D17*
X115500000Y-77400000D03*
D18*
X115500000Y-78700000D03*
%TD*%
D10*
%TO.C,J2*%
X149800000Y-79000000D03*
X149800000Y-81000000D03*
D11*
X152050000Y-76600000D03*
X152050000Y-83400000D03*
%TD*%
D19*
%TO.C,SW1*%
X101675000Y-93075000D03*
X101675000Y-89725000D03*
X103125000Y-93075000D03*
X103125000Y-89725000D03*
D20*
X100650000Y-91400000D03*
%TD*%
D21*
%TO.C,H1*%
X107800000Y-87000000D03*
%TD*%
D10*
%TO.C,J14*%
X158500000Y-80400000D03*
X158500000Y-82400000D03*
D11*
X160750000Y-78000000D03*
X160750000Y-84800000D03*
%TD*%
D10*
%TO.C,J13*%
X158500000Y-70587500D03*
X158500000Y-72587500D03*
D11*
X160750000Y-68187500D03*
X160750000Y-74987500D03*
%TD*%
D22*
%TO.C,J10*%
X106300000Y-67500000D03*
X104300000Y-67500000D03*
D23*
X108700000Y-69750000D03*
X101900000Y-69750000D03*
%TD*%
D22*
%TO.C,J3*%
X110300000Y-76200000D03*
X108300000Y-76200000D03*
X106300000Y-76200000D03*
X104300000Y-76200000D03*
D23*
X112700000Y-78450000D03*
X101900000Y-78450000D03*
%TD*%
D10*
%TO.C,J8*%
X141100000Y-79000000D03*
X141100000Y-81000000D03*
X141100000Y-83000000D03*
D11*
X143350000Y-76600000D03*
X143350000Y-85400000D03*
%TD*%
D10*
%TO.C,J12*%
X132500000Y-79000000D03*
X132500000Y-81000000D03*
D11*
X134750000Y-76600000D03*
X134750000Y-83400000D03*
%TD*%
D24*
%TO.C,J5*%
X150850000Y-67842500D03*
D25*
X150850000Y-71802500D03*
%TD*%
D22*
%TO.C,J11*%
X138100000Y-67500000D03*
X136100000Y-67500000D03*
D23*
X140500000Y-69750000D03*
X133700000Y-69750000D03*
%TD*%
D21*
%TO.C,H2*%
X126100000Y-73900000D03*
%TD*%
D10*
%TO.C,J15*%
X158500000Y-90400000D03*
X158500000Y-92400000D03*
D11*
X160750000Y-88000000D03*
X160750000Y-94800000D03*
%TD*%
D22*
%TO.C,J6*%
X118000000Y-67500000D03*
X116000000Y-67500000D03*
X114000000Y-67500000D03*
D23*
X120400000Y-69750000D03*
X111600000Y-69750000D03*
%TD*%
D26*
%TO.C,D11*%
X114900000Y-83900000D03*
X114900000Y-85475000D03*
%TD*%
D19*
%TO.C,SW2*%
X101675000Y-87875000D03*
X101675000Y-84525000D03*
X103125000Y-87875000D03*
X103125000Y-84525000D03*
D20*
X100650000Y-86200000D03*
%TD*%
D27*
%TO.C,U1*%
X136690000Y-94970000D03*
X137340000Y-94970000D03*
X137990000Y-94970000D03*
X138640000Y-94970000D03*
X139290000Y-94970000D03*
X137990000Y-94370000D03*
X136690000Y-94320000D03*
X137340000Y-94320000D03*
X138640000Y-94320000D03*
X139290000Y-94320000D03*
X136690000Y-93670000D03*
X137990000Y-93670000D03*
X138640000Y-93670000D03*
X139290000Y-93670000D03*
X137340000Y-93653331D03*
X137340000Y-93020000D03*
X137990000Y-93020000D03*
X138640000Y-93020000D03*
X139290000Y-93020000D03*
X136690000Y-92970000D03*
X136690000Y-92370000D03*
X137340000Y-92370000D03*
X137990000Y-92370000D03*
X138640000Y-92370000D03*
X139290000Y-92370000D03*
%TD*%
M02*
